# xmcd CD database file
#
# Track frame offsets:
#	150
#	16231
#	26970
#	42624
#	59616
#	76507
#	93958
#	106844
#	121542
#	133413
#	143902
#	159650
#	175372
#	190587
#	201539
#	214769
#	227254
#	241365
#	254720
#	270835
#
# Disc length: 3830 seconds
#
# Revision: 0
# Processed by: cddbd v1.4PL0 Copyright (c) Steve Scherf et al.
# Submitted via: CDex 1.40Beta8
#
DISCID=160ef414
DTITLE=Pancho Barraza - 20 Grandes Exitos
DYEAR=2001
DGENRE=Country
TTITLE0=Te esperare
TTITLE1=Sinverguenza y mujeriego
TTITLE2=Los amantes
TTITLE3=Donde andara
TTITLE4=Pero la recuerdo
TTITLE5=Mi enemigo el amor
TTITLE6=Mi amor y mi agonia
TTITLE7=Olvida mi tristeza
TTITLE8=Ojala sea cierto
TTITLE9=Amor que nace
TTITLE10=Dejame y olvidame
TTITLE11=Una noche como cualquiera
TTITLE12=Bonita que sueñas
TTITLE13=El vagabundo que te ama
TTITLE14=Ignoraste mis lagrimas
TTITLE15=Sin mentiras ni engaños
TTITLE16=Una tarde como cualquiera
TTITLE17=Borracho y solo
TTITLE18=Por amor y fe
TTITLE19=Esta cancion de amor
EXTD=YEAR: 2001 ID3G: 2
EXTT0=
EXTT1=
EXTT2=
EXTT3=
EXTT4=
EXTT5=
EXTT6=
EXTT7=
EXTT8=
EXTT9=
EXTT10=
EXTT11=
EXTT12=
EXTT13=
EXTT14=
EXTT15=
EXTT16=
EXTT17=
EXTT18=
EXTT19=
PLAYORDER=
